<?xml version="1.0" standalone="no"?>
<!DOCTYPE svg PUBLIC "-//W3C//DTD SVG 20010904//EN"
 "http://www.w3.org/TR/2001/REC-SVG-20010904/DTD/svg10.dtd">
<svg version="1.0" xmlns="http://www.w3.org/2000/svg"
 width="512.000000pt" height="512.000000pt" viewBox="0 0 512.000000 512.000000"
 preserveAspectRatio="xMidYMid meet">
<metadata>
Created by potrace 1.14, written by Peter Selinger 2001-2017
</metadata>
<g transform="translate(0.000000,512.000000) scale(0.100000,-0.100000)"
fill="#000000" stroke="none">
<path d="M510 2555 l0 -1055 195 0 195 0 2 688 3 689 450 -689 449 -688 183 0
183 0 0 1055 0 1055 -195 0 -195 0 -2 -690 -3 -690 -450 690 -450 690 -182 0
-183 0 0 -1055z"/>
<path d="M2510 2555 l0 -1055 190 0 190 0 0 442 c0 432 -1 448 -35 792 -20
192 -34 355 -33 362 2 7 136 -350 298 -792 l295 -804 145 2 145 3 257 635
c142 349 261 643 265 653 4 9 6 -277 4 -638 l-3 -655 191 0 191 0 0 1055 0
1055 -222 -2 -223 -3 -300 -747 c-164 -412 -302 -748 -305 -748 -3 0 -141 336
-305 748 l-300 747 -222 3 -223 2 0 -1055z"/>
</g>
</svg>
